<svg width="16" height="16" viewBox="0 0 16 16" fill="none" xmlns="http://www.w3.org/2000/svg">
<g clip-path="url(#clip0_1_42)">
<path
      d="M2.10603e-06 2.66667L2.10603e-06 5.33333H0.666669V6.66667H2V7.33333L4.66667 7.33333V6.66667H6V6H6.66667V5.33333H4.66667V4.66667L3.33334 4.66667V4H2.66667L2.66667 2.66667H2V0.666667L1.33334 0.666667V1.33333H0.666669V2.66667H2.10603e-06ZM2 0V0.666667L2.66667 0.666667V0L2 0ZM6.66667 4.66667V5.33333H7.33334V4.66667H6.66667Z"
      fill="hsl(205, 100%, 56%)" />
</g>
<path d="M6.66667 10H4.33333V11H6.66667V10ZM6.66667 10H9V9H11.3333V8H9V7H7.83333V9H6.66667V10ZM2 13H3.16667V12H4.33333V11H3.16667V9H2V13ZM7.83333 16H10.1667V10H9V14H7.83333V16ZM3.16667 9H6.66667V8H3.16667V9ZM9 7H10.1667V6H9V7ZM11.3333 8H12.5V7H11.3333V8ZM10.1667 6H12.5V5H10.1667V6ZM12.5 7H14.8333V6H12.5V7Z" fill="#029703"/>
<path d="M6.22389 9.35015C6.15814 9.39828 6.08336 9.46286 5.97486 9.51922C5.96964 9.53543 5.99758 9.55139 6.03525 9.56361C6.07292 9.57582 6.11948 9.5838 6.19568 9.59203" stroke="#029703" stroke-linecap="round"/>
<path d="M6.33677 9.56784C6.35539 9.57582 6.37402 9.5838 6.36033 9.58791C6.20904 9.63337 6.07377 9.4232 5.91885 9.29016C5.79806 9.18644 5.61324 9.21325 4.9707 9.20902C4.68107 9.20711 4.45627 9.24518 4.29627 9.27348C4.11114 9.30622 3.82755 9.30177 3.67489 9.28557C3.47765 9.26463 3.8157 9.59154 3.82064 9.78879C3.82352 9.90403 3.72201 9.97854 3.66558 10.1393C3.6358 10.2241 3.65598 10.3791 3.64667 10.4492C3.63736 10.5194 3.61873 10.5034 3.59983 10.4832C3.46603 10.3403 3.43023 10.0603 3.40215 9.9552C3.39548 9.93022 3.38339 9.90695 3.37859 9.91058C3.25543 10.0037 3.46748 10.2925 3.51475 10.4542C3.54592 10.5608 3.57133 10.6718 3.62282 10.7568C3.63551 10.7777 3.64639 10.8009 3.66515 10.8172C3.68392 10.8336 3.71186 10.8416 3.74022 10.8377C3.86702 10.8204 3.98445 10.6413 4.07433 10.4874C4.16162 10.338 4.20117 10.1488 4.30925 10.076C4.42553 9.99769 4.62332 9.91517 4.79362 9.85422C4.95377 9.79375 5.06636 9.72941 5.22636 9.72095C5.24583 9.72893 5.22721 9.74489 5.20802 9.76134" stroke="#029703" stroke-linecap="round"/>
<path d="M10.6711 7.32175C10.6675 7.32483 10.6639 7.3279 10.6513 7.33255C10.6387 7.33721 10.6172 7.34335 10.5842 7.34968" stroke="#029703" stroke-linecap="round"/>
<path d="M9.98683 7.41485V7.42416" stroke="#029703" stroke-linecap="round"/>
<path d="M11.768 6.3629H11.7789" stroke="#029703" stroke-linecap="round"/>
<path d="M11.8657 6.39083V6.40945" stroke="#029703" stroke-linecap="round"/>
<path d="M11.8657 6.41876C11.7869 6.48634 11.7391 6.53959 11.7283 6.5752C11.7231 6.5921 11.7246 6.60774 11.7407 6.62179C11.8361 6.70494 12.0065 6.65465 12.0611 6.64069C12.0728 6.6377 12.0827 6.62989 12.0883 6.62212C12.1105 6.59093 12.1047 6.53698 12.1155 6.47638C12.118 6.46215 12.1227 6.45004 12.1192 6.44217C12.1157 6.4343 12.1049 6.43123 12.1047 6.42811C12.1042 6.41714 12.1372 6.41876 12.157 6.41569C12.1667 6.41419 12.1733 6.40647 12.1681 6.42634C12.1259 6.5854 12.0072 6.66992 11.9493 6.70567C11.9145 6.72714 11.8337 6.73518 11.7128 6.74914C11.4557 6.77885 11.3305 6.71684 11.2596 6.69655C11.2123 6.68303 11.1889 6.64237 11.1527 6.54792C11.1223 6.4688 11.1524 6.38487 11.176 6.33516C11.2025 6.27917 11.2574 6.2699 11.2648 6.25594C11.2931 6.20194 11.009 6.25417 10.8382 6.28675C10.689 6.31519 10.6387 6.34112 10.5699 6.37207C10.4831 6.41118 10.5479 6.58912 10.5606 6.65586C10.5761 6.73731 10.5733 6.80006 10.5931 6.86537C10.6123 6.92859 10.6743 6.98941 10.7288 7.02684C10.7911 7.06963 10.8624 7.1136 10.9099 7.15405C10.9464 7.18519 10.9786 7.21302 11.0058 7.27032C11.0462 7.35538 11.0114 7.50459 10.9969 7.55276C10.9936 7.56378 10.9897 7.57292 10.9825 7.5792C10.9528 7.60501 10.903 7.61649 10.8541 7.63818C10.7893 7.66686 10.7076 7.67551 10.6299 7.68323C10.4192 7.70419 10.3383 7.65391 10.2353 7.58432C10.1611 7.53422 10.0959 7.42788 10.0253 7.32096C9.94637 7.20128 9.90386 7.12645 9.87469 7.08916C9.8251 7.02576 9.66122 7.06724 9.59248 7.09666C9.56811 7.10709 9.55609 7.1231 9.54344 7.13701C9.51242 7.17113 9.52351 7.22848 9.53415 7.36448C9.54398 7.49009 9.6067 7.58521 9.60312 7.6379C9.59768 7.71783 9.4477 7.74682 9.40051 7.76697C9.35769 7.78526 9.30651 7.80267 9.28088 7.81515C9.25898 7.82581 9.32421 7.78107 9.37993 7.75487C9.50165 7.69762 9.63516 7.65084 9.78287 7.59531C9.88196 7.55805 10.0238 7.49062 10.1119 7.45278C10.2001 7.41494 10.2288 7.40572 10.3045 7.37179C10.5039 7.28242 10.6491 7.21321 10.7086 7.19161C10.8034 7.15719 10.8915 7.10476 10.9656 7.06603C11.038 7.02812 11.0981 7.01771 11.1593 6.99765C11.2828 6.95712 11.402 6.93393 11.4742 6.91848C11.6155 6.88824 11.7204 6.85946 11.8093 6.8393C11.8931 6.82031 11.9813 6.81906 12.1078 6.80053C12.1657 6.78815 12.2023 6.77875 12.2007 6.77409C12.1883 6.77251 12.1525 6.77251 12.1155 6.77251" stroke="#029703" stroke-linecap="round"/>
<defs>
<clipPath id="clip0_1_42">
<rect width="8" height="8" fill="white" transform="matrix(0 1 -1 0 8 0)"/>
</clipPath>
</defs>
</svg>
